<svg width="48" height="48" viewBox="0 0 48 48" fill="none" xmlns="http://www.w3.org/2000/svg">
<path d="M38.3154 18.8699H26.4244V16.1767C28.9887 15.199 30.8116 12.7187 30.8116 9.8112C30.8112 6.04964 27.762 3 24 3C20.2384 3 17.1888 6.04964 17.1888 9.8112C17.1888 12.7183 19.0113 15.199 21.5756 16.1767V18.8699H9.68504L2 47H46L38.3154 18.8699ZM21.5756 13.4997C20.377 12.7108 19.5859 11.3538 19.5859 9.81164C19.5859 7.3736 21.5624 5.39712 24 5.39712C26.438 5.39712 28.4145 7.3736 28.4145 9.81164C28.4145 11.3538 27.623 12.7108 26.4244 13.4997V11.9602H21.5756V13.4997Z" fill="#B9BCC2"/>
<path d="M0 34H48" stroke="#F6F6F6" stroke-width="3"/>
<path d="M21.662 41.162L24.379 44H23.191L20.683 41.393V44H19.726V38.5H20.683V40.931L23.059 38.5H24.291L21.662 41.162ZM25.269 38.5H28.877V39.424H26.226V44H25.269V38.5Z" fill="#F6F6F6"/>
</svg>
