<svg width="48" height="48" viewBox="0 0 48 48" fill="none" xmlns="http://www.w3.org/2000/svg">
<rect x="48" y="48" width="48" height="48" rx="24" transform="rotate(-180 48 48)" fill="white"/>
<path d="M22.405 17.345C22.5454 17.4856 22.6243 17.6762 22.6243 17.875C22.6243 18.0737 22.5454 18.2644 22.405 18.405L17.435 23.375L31.8749 23.375C32.0739 23.375 32.2646 23.454 32.4053 23.5947C32.5459 23.7353 32.6249 23.9261 32.6249 24.125C32.6249 24.3239 32.5459 24.5147 32.4053 24.6553C32.2646 24.796 32.0739 24.875 31.8749 24.875L17.435 24.875L22.4049 29.845C22.5037 29.9367 22.5758 30.0533 22.6139 30.1825C22.6519 30.3118 22.6543 30.4489 22.6209 30.5794C22.5876 30.7099 22.5196 30.829 22.4242 30.9242C22.3288 31.0193 22.2096 31.0869 22.0789 31.12C21.9486 31.1534 21.8116 31.1511 21.6824 31.1132C21.5533 31.0754 21.4367 31.0035 21.3449 30.905L15.095 24.655C14.9545 24.5144 14.8756 24.3237 14.8756 24.125C14.8756 23.9262 14.9545 23.7356 15.095 23.595L21.345 17.345C21.4856 17.2045 21.6762 17.1256 21.875 17.1256C22.0737 17.1256 22.2643 17.2045 22.405 17.345Z" fill="black"/>
</svg>
