<svg width="40" height="42" viewBox="0 0 40 42" fill="none" xmlns="http://www.w3.org/2000/svg">
<path d="M0 4C0 2.89543 0.895431 2 2 2H38C39.1046 2 40 2.89543 40 4V30C40 36.6274 34.6274 42 28 42H12C5.37258 42 0 36.6274 0 30V4Z" fill="#B9BCC2"/>
<g clip-path="url(#clip0_211_227)">
<path fill-rule="evenodd" clip-rule="evenodd" d="M14.5943 17.5406C14.4572 17.3728 14.2918 17.2382 14.108 17.1449C13.9242 17.0516 13.7258 17.0014 13.5246 16.9974C13.3235 16.9933 13.1237 17.0355 12.9371 17.1214C12.7506 17.2073 12.5811 17.3351 12.4388 17.4972C12.2965 17.6594 12.1844 17.8525 12.109 18.0652C12.0337 18.2778 11.9967 18.5055 12.0002 18.7348C12.0038 18.9641 12.0478 19.1902 12.1297 19.3997C12.2116 19.6091 12.3296 19.7976 12.4768 19.954L18.9691 27.3558L20.0279 28.5625L21.0866 27.3558L27.5789 19.9563C27.852 19.6343 28.0032 19.2031 28 18.7554C27.9967 18.3076 27.8393 17.8793 27.5617 17.5625C27.284 17.2458 26.9083 17.066 26.5155 17.0619C26.1227 17.0578 25.7441 17.2297 25.4614 17.5406L21.5261 22.0258L21.5261 -1.60491C21.5261 -2.05779 21.3683 -2.49212 21.0873 -2.81235C20.8063 -3.13259 20.4252 -3.3125 20.0279 -3.3125C19.6305 -3.3125 19.2495 -3.13259 18.9685 -2.81235C18.6875 -2.49212 18.5297 -2.05779 18.5297 -1.60491L18.5297 22.0258L14.5943 17.5406Z" fill="#F6F6F6"/>
</g>
<defs>
<clipPath id="clip0_211_227">
<rect width="31" height="36" fill="white" transform="translate(36 36) rotate(-180)"/>
</clipPath>
</defs>
</svg>
